<?xml version="1.0" encoding="UTF-8" standalone="no"?>
<!-- Created with Inkscape (http://www.inkscape.org/) -->

<svg
   width="96"
   height="96"
   viewBox="0 0 25.4 25.4"
   version="1.1"
   id="svg5"
   inkscape:version="1.2.1 (9c6d41e410, 2022-07-14)"
   sodipodi:docname="person.svg"
   xmlns:inkscape="http://www.inkscape.org/namespaces/inkscape"
   xmlns:sodipodi="http://sodipodi.sourceforge.net/DTD/sodipodi-0.dtd"
   xmlns="http://www.w3.org/2000/svg"
   xmlns:svg="http://www.w3.org/2000/svg">
  <sodipodi:namedview
     id="namedview7"
     pagecolor="#ffffff"
     bordercolor="#666666"
     borderopacity="1.0"
     inkscape:showpageshadow="2"
     inkscape:pageopacity="0.0"
     inkscape:pagecheckerboard="0"
     inkscape:deskcolor="#d1d1d1"
     inkscape:document-units="px"
     showgrid="false"
     inkscape:zoom="8.0729165"
     inkscape:cx="66.580647"
     inkscape:cy="45.27484"
     inkscape:window-width="1920"
     inkscape:window-height="991"
     inkscape:window-x="-9"
     inkscape:window-y="-9"
     inkscape:window-maximized="1"
     inkscape:current-layer="layer1" />
  <defs
     id="defs2" />
  <g
     inkscape:label="Layer 1"
     inkscape:groupmode="layer"
     id="layer1">
    <path
       id="path531"
       style="fill:#000000;stroke:none;stroke-width:218.717;stroke-linecap:round;stroke-linejoin:round;stop-color:#000000"
       d="M 11.975496 0.42994792 A 11.545172 11.545172 0 0 0 0.42994792 11.975496 A 11.545172 11.545172 0 0 0 11.975496 23.520528 A 11.545172 11.545172 0 0 0 23.520528 11.975496 A 11.545172 11.545172 0 0 0 11.975496 0.42994792 z M 11.975496 4.5599284 A 4.0625979 4.0625979 0 0 1 16.037781 8.6222127 A 4.0625979 4.0625979 0 0 1 11.975496 12.684497 A 4.0625979 4.0625979 0 0 1 7.9126953 8.6222127 A 4.0625979 4.0625979 0 0 1 11.975496 4.5599284 z M 11.545032 13.613639 L 12.405444 13.613639 C 15.874638 13.613639 18.860298 14.988728 20.281966 16.993278 A 9.709817 9.709817 0 0 1 11.975496 21.684981 A 9.709817 9.709817 0 0 1 3.6685099 16.993278 C 5.0901793 14.988728 8.0758386 13.613639 11.545032 13.613639 z " />
  </g>
</svg>
