<?xml version="1.0" encoding="UTF-8" standalone="no"?>
<!-- Created with Inkscape (http://www.inkscape.org/) -->

<svg
   width="150"
   height="150"
   viewBox="0 0 39.6875 39.6875"
   version="1.1"
   id="svg5"
   xml:space="preserve"
   inkscape:export-filename="unplugged.png"
   inkscape:export-xdpi="200"
   inkscape:export-ydpi="200"
   inkscape:version="1.2.1 (9c6d41e410, 2022-07-14)"
   sodipodi:docname="unplugged.svg"
   xmlns:inkscape="http://www.inkscape.org/namespaces/inkscape"
   xmlns:sodipodi="http://sodipodi.sourceforge.net/DTD/sodipodi-0.dtd"
   xmlns="http://www.w3.org/2000/svg"
   xmlns:svg="http://www.w3.org/2000/svg"><sodipodi:namedview
     id="namedview7"
     pagecolor="#ffffff"
     bordercolor="#666666"
     borderopacity="1.0"
     inkscape:showpageshadow="2"
     inkscape:pageopacity="0.0"
     inkscape:pagecheckerboard="0"
     inkscape:deskcolor="#d1d1d1"
     inkscape:document-units="px"
     showgrid="false"
     inkscape:zoom="2.8649831"
     inkscape:cx="62.827595"
     inkscape:cy="56.021272"
     inkscape:window-width="1920"
     inkscape:window-height="991"
     inkscape:window-x="-9"
     inkscape:window-y="-9"
     inkscape:window-maximized="1"
     inkscape:current-layer="layer1" /><defs
     id="defs2" /><g
     inkscape:label="Layer 1"
     inkscape:groupmode="layer"
     id="layer1"><path
       style="fill:#808080;stroke-width:0.0157772"
       d="m 19.714324,33.176127 c -0.102666,-0.0626 -0.09937,-0.02696 -0.09937,-1.074783 0,-0.924428 8.42e-4,-0.950849 0.03181,-1.000951 0.01749,-0.0283 0.05584,-0.06286 0.08521,-0.0768 0.110803,-0.05258 0.250182,-0.01789 0.308716,0.0768 0.03096,0.0501 0.03181,0.07652 0.03181,1.000951 0,1.047813 0.0033,1.012183 -0.09937,1.074783 -0.03232,0.01971 -0.07893,0.0308 -0.129397,0.0308 -0.05047,0 -0.09708,-0.0111 -0.129396,-0.0308 z M 2.2718059,29.669428 c -0.061245,-0.0355 -0.1221431,-0.134385 -0.1221431,-0.198341 0,-0.05894 0.049172,-0.160158 0.092949,-0.19133 0.023116,-0.01647 0.7970927,-0.293436 1.7199494,-0.615495 0.9228567,-0.322064 1.7290581,-0.606859 1.7915591,-0.632879 0.3904142,-0.16253 0.758905,-0.551091 0.9067139,-0.956094 0.1458024,-0.399508 0.1567869,-0.725475 0.038108,-1.13087 -0.1345863,-0.459737 -0.064873,-0.800978 0.2233044,-1.093047 0.1013994,-0.102763 0.1525852,-0.140641 0.2603228,-0.192616 0.073759,-0.03559 0.9825203,-0.360118 2.019473,-0.72119 1.0369516,-0.361073 1.8916296,-0.662629 1.8992846,-0.670124 0.008,-0.0078 -0.03571,-0.15531 -0.102547,-0.346175 -0.09182,-0.262176 -0.121476,-0.330589 -0.140134,-0.323311 -0.01301,0.0051 -0.8898306,0.311326 -1.9484766,0.68055 -1.3348575,0.465557 -1.970749,0.694727 -2.074693,0.747695 -0.4803934,0.244805 -0.8181962,0.716821 -0.9076351,1.26825 -0.043895,0.270634 -0.023193,0.503036 0.073119,0.820768 0.046509,0.153435 0.052471,0.193663 0.051444,0.347097 -9.7e-4,0.143339 -0.00852,0.196108 -0.043426,0.30315 -0.07506,0.230171 -0.2328238,0.427579 -0.4439942,0.55556 -0.1275347,0.0773 -3.4842082,1.24754 -3.5783799,1.24754 -0.093758,0 -0.1669873,-0.05145 -0.2055026,-0.144387 -0.038735,-0.09347 -0.025386,-0.170799 0.042143,-0.244118 0.046958,-0.05099 0.1636687,-0.09419 1.7463643,-0.646419 0.9328229,-0.325476 1.725242,-0.60888 1.7609311,-0.629791 0.125677,-0.07362 0.2106333,-0.200786 0.2425396,-0.363037 0.019943,-0.101406 0.015594,-0.12862 -0.070202,-0.439183 -0.1085189,-0.392821 -0.090409,-0.85959 0.048918,-1.260899 0.2002638,-0.576821 0.6040386,-1.027828 1.1469946,-1.281161 0.079516,-0.0371 1.037363,-0.37858 2.1285493,-0.758844 1.4799435,-0.51574 1.9840145,-0.697591 1.9841295,-0.715809 3.06e-4,-0.04874 0.07802,-0.190018 0.143745,-0.261319 0.0851,-0.09232 0.156064,-0.133491 0.35219,-0.204296 0.08629,-0.03116 0.158861,-0.05862 0.161283,-0.06104 0.0024,-0.0024 -0.0352,-0.114052 -0.08359,-0.248067 -0.0731,-0.202417 -0.08929,-0.266363 -0.09575,-0.37777 -0.0064,-0.11164 -0.0021,-0.149225 0.02627,-0.224357 0.06965,-0.184758 0.01186,-0.148554 1.799148,-1.126949 0.898114,-0.491642 1.665249,-0.90782 1.704746,-0.924835 l 0.07182,-0.03094 0.0016,-0.107315 c 0.0013,-0.0803 0.01247,-0.131416 0.04461,-0.203046 0.04421,-0.0985 0.15075,-0.214208 0.237554,-0.257968 0.08495,-0.04282 0.652393,-0.234447 0.731122,-0.246892 0.166781,-0.02636 0.351213,0.03359 0.467703,0.15202 0.07731,0.0786 0.11864,0.173193 0.283109,0.647916 0.114499,0.330494 0.142659,0.397461 0.163638,0.389147 0.01394,-0.0055 0.53297,-0.18832 1.153405,-0.406221 l 1.128065,-0.396179 0.150214,-8.42e-4 c 0.138707,-7.92e-4 0.158254,0.0032 0.255144,0.0508 0.216181,0.106424 0.33304,0.294879 0.334838,0.539986 8.68e-4,0.118572 -0.0048,0.14621 -0.04835,0.238604 -0.06047,0.128076 -0.137491,0.21566 -0.237404,0.269974 -0.05713,0.03106 -2.319089,0.832478 -2.349613,0.832478 -0.0033,0 -0.006,0.0101 -0.006,0.02252 0,0.02266 0.371162,1.095425 0.383148,1.107413 0.0036,0.0036 0.526244,-0.174869 1.161584,-0.396444 0.746763,-0.260433 1.186967,-0.406187 1.245122,-0.412266 0.375106,-0.0392 0.706189,0.319297 0.637246,0.690023 -0.03253,0.174962 -0.138061,0.333128 -0.275661,0.413177 -0.03686,0.02144 -0.581738,0.218289 -1.210851,0.437441 -0.629114,0.21915 -1.148081,0.402839 -1.153258,0.408193 -0.0052,0.0053 0.06122,0.20853 0.147565,0.451498 0.146013,0.410894 0.157117,0.450579 0.15891,0.567978 0.0016,0.107239 -0.0047,0.140452 -0.0419,0.220879 -0.05339,0.115332 -0.13475,0.202545 -0.238407,0.255564 -0.04284,0.02191 -0.220341,0.08872 -0.394429,0.14844 -0.267944,0.09192 -0.332778,0.108608 -0.422428,0.108673 -0.160526,1.57e-4 -0.266856,-0.04586 -0.385917,-0.166909 -0.09374,-0.0953 -0.09936,-0.09846 -0.149883,-0.08421 -0.02887,0.0081 -0.861857,0.154966 -1.851084,0.326271 -1.978518,0.342623 -1.982843,0.343167 -2.137801,0.269488 -0.176704,-0.08402 -0.233176,-0.166335 -0.355431,-0.518112 -0.04976,-0.143177 -0.09165,-0.26184 -0.09308,-0.263696 -0.0014,-0.0018 -0.08748,0.02456 -0.191198,0.05869 -0.268416,0.08835 -0.421517,0.08231 -0.597324,-0.02355 l -0.08794,-0.05296 -1.8973524,0.662127 c -1.0435432,0.364169 -1.9389564,0.677234 -1.9898047,0.695697 -0.1188694,0.04316 -0.2470872,0.159024 -0.303429,0.274181 -0.066139,0.135183 -0.068072,0.260405 -0.00704,0.455981 0.07465,0.239215 0.1004021,0.411195 0.1004021,0.670529 0,0.267778 -0.029184,0.454913 -0.1074033,0.688691 -0.1436659,0.429389 -0.4130745,0.807223 -0.7643,1.071907 -0.2679513,0.201927 -0.357697,0.237796 -2.22216,0.888143 -0.9482027,0.330743 -1.74692,0.601187 -1.7749276,0.600988 -0.028008,-2.07e-4 -0.077606,-0.01583 -0.1102176,-0.03473 z M 14.744469,23.750444 c 1.169548,-0.201644 1.771455,-0.311754 1.786521,-0.32682 0.01978,-0.01978 -0.07429,-0.300611 -0.725769,-2.166731 -0.411667,-1.179205 -0.757251,-2.149428 -0.767963,-2.156049 -0.02465,-0.01523 0.128796,-0.0967 -1.630608,0.865753 -0.833033,0.455696 -1.543005,0.844054 -1.577714,0.863016 -0.03471,0.01896 -0.06537,0.04616 -0.06814,0.06043 -0.0067,0.03442 1.082535,3.154419 1.106564,3.169674 0.01021,0.0065 0.03995,0.008 0.06598,0.0034 0.02603,-0.0047 0.841041,-0.145353 1.811133,-0.312606 z m 2.748459,-0.169465 c 0.156193,-0.05347 0.296426,-0.108829 0.311625,-0.123015 0.02616,-0.0244 -0.02057,-0.163933 -0.869702,-2.596997 -0.802098,-2.2983 -0.900999,-2.571755 -0.931798,-2.57637 -0.03465,-0.0052 -0.575609,0.177063 -0.612428,0.206338 -0.01086,0.0086 -0.01973,0.02805 -0.01973,0.04317 0,0.03451 1.765343,5.096937 1.786755,5.123827 0.0086,0.01086 0.0237,0.01985 0.03349,0.02 0.0098,1.57e-4 0.145585,-0.04347 0.301778,-0.09695 z m -5.582497,-0.270145 c 0.08092,-0.0282 0.147153,-0.05755 0.147196,-0.06522 2.05e-4,-0.0357 -0.420068,-1.21348 -0.435074,-1.21929 -0.02366,-0.0091 -0.286536,0.08759 -0.314811,0.11586 -0.05147,0.05147 -0.04213,0.09243 0.141781,0.62206 0.185637,0.534595 0.216149,0.597866 0.288316,0.597866 0.01401,0 0.09167,-0.02307 0.172592,-0.05127 z m 7.051443,-1.76412 c 0.637529,-0.222265 1.147525,-0.408438 1.164521,-0.425105 0.03526,-0.03459 0.0397,-0.112979 0.0086,-0.150539 -0.05749,-0.06926 -0.0407,-0.07391 -1.235071,0.342048 -0.626297,0.218119 -1.143169,0.400962 -1.148602,0.406318 -0.0081,0.008 0.06208,0.222731 0.0729,0.222731 0.0018,0 0.513864,-0.177954 1.137717,-0.395453 z m -0.506542,-2.35774 c 0.468581,-0.163006 0.863943,-0.307769 0.878581,-0.321694 0.01464,-0.01393 0.03134,-0.04467 0.03711,-0.06831 0.0085,-0.03465 0.0013,-0.05224 -0.03724,-0.09072 -0.02624,-0.02625 -0.05861,-0.04773 -0.07189,-0.04773 -0.02508,0 -2.282566,0.78444 -2.295922,0.797795 -0.0041,0.0041 0.0083,0.05682 0.0277,0.117046 l 0.03526,0.109487 0.287214,-0.09975 c 0.157966,-0.05486 0.670598,-0.233119 1.139179,-0.396126 z M 10.494404,29.35812 c -0.06834,-0.02073 -0.120857,-0.06296 -0.14716,-0.118392 -0.02909,-0.06131 -0.03255,-0.15349 -0.0076,-0.202828 0.0096,-0.01893 0.313098,-0.331019 0.674472,-0.693482 0.534678,-0.536277 0.667955,-0.661976 0.71562,-0.67492 0.191403,-0.05198 0.365212,0.156845 0.273775,0.32893 -0.01245,0.02343 -0.315989,0.335461 -0.67453,0.693396 -0.707864,0.706674 -0.70698,0.705963 -0.834579,0.667296 z m 18.563684,-0.001 c -0.05163,-0.01596 -1.334803,-1.285511 -1.37416,-1.359583 -0.09143,-0.17208 0.08237,-0.380902 0.273775,-0.328925 0.04767,0.01297 0.180944,0.13864 0.715618,0.67492 0.361376,0.362461 0.664892,0.674522 0.674476,0.693477 0.02504,0.04952 0.02144,0.141591 -0.0079,0.203507 -0.04415,0.09303 -0.178349,0.148566 -0.281791,0.116604 z m -5.4526,-7.478429 c -0.151979,-0.02521 -0.311465,-0.138249 -0.377388,-0.267472 -0.01737,-0.03405 -0.43775,-1.22484 -0.934173,-2.646195 -0.881622,-2.524252 -0.902589,-2.587025 -0.902758,-2.702605 -2.05e-4,-0.140593 0.05098,-0.270147 0.145475,-0.368181 0.08071,-0.08374 0.165809,-0.123638 0.530672,-0.248814 0.267944,-0.09192 0.332777,-0.108608 0.422427,-0.108673 0.16131,-1.26e-4 0.266745,0.04575 0.387618,0.168644 0.0545,0.05541 0.105762,0.09663 0.113907,0.0916 0.01873,-0.01158 3.638422,-0.638947 3.752821,-0.650446 0.116268,-0.01169 0.237311,0.01872 0.336665,0.08458 0.131702,0.0873 0.175994,0.160056 0.283364,0.465494 0.05296,0.150662 0.09744,0.275442 0.09885,0.277289 0.0015,0.0018 0.09098,-0.02557 0.199047,-0.06094 0.178835,-0.05853 0.207113,-0.06357 0.314814,-0.05611 0.118881,0.0083 0.231444,0.04592 0.315121,0.105501 l 0.04329,0.03082 1.899434,-0.662853 c 1.044689,-0.364569 1.941036,-0.67796 1.991884,-0.696423 0.118871,-0.04317 0.247089,-0.159023 0.303431,-0.274181 0.06613,-0.135184 0.06807,-0.260404 0.0071,-0.455981 -0.07424,-0.237898 -0.09994,-0.410669 -0.09974,-0.670528 2.05e-4,-0.267655 0.02942,-0.455723 0.107001,-0.688693 0.14143,-0.424723 0.416048,-0.810312 0.762053,-1.069994 0.274991,-0.206384 0.357018,-0.239214 2.224278,-0.890261 0.948275,-0.330629 1.746025,-0.6011427 1.772778,-0.6011427 0.109589,0 0.234385,0.1242867 0.234385,0.2334297 0,0.05894 -0.04918,0.160161 -0.09295,0.191332 -0.02313,0.01646 -0.797092,0.293433 -1.719951,0.615496 -0.922854,0.322064 -1.729059,0.606857 -1.79156,0.632877 -0.390413,0.16253 -0.758903,0.551089 -0.906712,0.956094 -0.145805,0.399509 -0.156785,0.725476 -0.03811,1.130871 0.134587,0.459737 0.06487,0.800977 -0.223303,1.093046 -0.101406,0.102764 -0.152585,0.140642 -0.260327,0.192616 -0.07376,0.03558 -0.982519,0.360117 -2.019471,0.72119 -1.036952,0.361073 -1.891631,0.662629 -1.899284,0.670125 -0.008,0.0078 0.03571,0.155308 0.102547,0.346173 0.09179,0.26208 0.121481,0.330597 0.140135,0.323347 0.01301,-0.0051 0.879181,-0.307109 1.924809,-0.671223 1.367486,-0.476192 1.949931,-0.686154 2.07495,-0.747984 0.499833,-0.2472 0.839561,-0.713277 0.931043,-1.277323 0.0439,-0.270634 0.02318,-0.503035 -0.07312,-0.820768 -0.04651,-0.153435 -0.05247,-0.193663 -0.05145,-0.347097 7.65e-4,-0.14334 0.0085,-0.196108 0.04343,-0.303151 0.07506,-0.23017 0.232826,-0.427575 0.443994,-0.555557 0.127536,-0.07729 3.484211,-1.24754 3.578378,-1.24754 0.09376,0 0.166989,0.05145 0.205506,0.144383 0.03874,0.09347 0.02538,0.170799 -0.04215,0.244122 -0.04696,0.05099 -0.163666,0.09419 -1.746365,0.646418 -0.932822,0.325478 -1.725242,0.608883 -1.760929,0.62979 -0.125679,0.07362 -0.210634,0.200786 -0.242541,0.363037 -0.01993,0.101406 -0.01557,0.128618 0.0702,0.439183 0.05393,0.195211 0.07757,0.424603 0.0669,0.649052 -0.03843,0.808427 -0.512266,1.529454 -1.233841,1.877531 -0.115471,0.0557 -0.83747,0.314952 -2.157522,0.774713 -1.480116,0.515506 -1.984014,0.697197 -1.984131,0.715417 -2.56e-4,0.04874 -0.07802,0.190018 -0.143744,0.26132 -0.0851,0.09233 -0.156066,0.13349 -0.352189,0.204294 -0.08629,0.03116 -0.158862,0.05862 -0.161284,0.06104 -0.0025,0.0024 0.0352,0.114052 0.08359,0.248067 0.07309,0.202418 0.08929,0.266364 0.09575,0.377769 0.0064,0.111641 0.0021,0.149225 -0.02626,0.224357 -0.06969,0.184837 -0.01177,0.148558 -1.799148,1.126919 -0.898113,0.491601 -1.665249,0.907767 -1.704746,0.924813 l -0.07182,0.03099 -0.0016,0.107956 c -0.0027,0.174987 -0.101276,0.3486 -0.250609,0.441377 -0.04505,0.02798 -0.584597,0.224457 -0.692726,0.252246 -0.08464,0.02176 -0.172079,0.02703 -0.245623,0.01483 z m 0.395508,-0.569311 c 0.151855,-0.05309 0.286453,-0.106326 0.299107,-0.118305 0.01827,-0.01729 0.01968,-0.03398 0.0068,-0.08104 -0.04287,-0.157424 -1.764016,-5.063709 -1.783589,-5.084278 -0.01992,-0.02093 -0.05656,-0.01204 -0.317689,0.0771 -0.162342,0.05542 -0.307583,0.112409 -0.322756,0.126633 -0.02609,0.02446 0.02056,0.163872 0.863959,2.581341 0.490351,1.405516 0.894801,2.564357 0.898779,2.575204 0.01281,0.03491 0.07381,0.02176 0.35532,-0.07666 z M 26.280791,19.721 c 0.833034,-0.455657 1.543008,-0.843989 1.577714,-0.862959 0.03471,-0.01898 0.06537,-0.04618 0.06815,-0.06046 0.0074,-0.03792 -1.08675,-3.163242 -1.110589,-3.172391 -0.03637,-0.01396 -3.634946,0.614158 -3.659539,0.638752 -0.01968,0.01968 0.07541,0.303604 0.725717,2.166702 0.4116,1.17923 0.757152,2.149484 0.767891,2.15612 0.02464,0.01523 -0.131894,0.09833 1.630656,-0.865761 z m 1.981283,-2.118956 c 0.114409,-0.04413 0.15652,-0.08241 0.15652,-0.142293 0,-0.0088 -0.08182,-0.251644 -0.181813,-0.539624 -0.18446,-0.531219 -0.215073,-0.594599 -0.287179,-0.594599 -0.04158,0 -0.319703,0.101341 -0.319788,0.116527 0,0.01198 0.362926,1.060936 0.409816,1.184267 0.01935,0.05088 0.03076,0.04964 0.222444,-0.02428 z M 6.6022576,20.054225 c -0.08207,-0.04045 -0.1217709,-0.109052 -0.1217709,-0.210418 0,-0.06449 0.00904,-0.09944 0.035187,-0.136104 0.073589,-0.103166 0.045815,-0.100548 1.0682804,-0.100548 0.8887709,0 0.927543,0.0012 0.9859685,0.03102 0.064439,0.03287 0.1272511,0.134368 0.1272511,0.20563 0,0.07126 -0.06281,0.172754 -0.1272511,0.20563 -0.058454,0.02983 -0.096833,0.03101 -0.9883532,0.03067 -0.8220998,-3.06e-4 -0.9334208,-0.0033 -0.9793118,-0.02588 z m 24.5119134,-0.0055 c -0.06107,-0.03226 -0.123902,-0.136155 -0.123902,-0.204865 0,-0.07126 0.06281,-0.172753 0.127251,-0.20563 0.05842,-0.02981 0.0972,-0.03102 0.985965,-0.03102 1.022469,0 0.994692,-0.0026 1.068281,0.100547 0.02614,0.03666 0.03518,0.07161 0.03518,0.136105 0,0.06449 -0.009,0.09944 -0.03518,0.136104 -0.07366,0.103275 -0.04525,0.100624 -1.071597,0.09985 -0.885523,-6.38e-4 -0.931124,-0.0021 -0.985998,-0.03109 z M 11.719015,12.017932 c -0.05163,-0.01596 -1.334801,-1.285509 -1.374159,-1.359578 -0.09143,-0.172084 0.08237,-0.380906 0.273776,-0.328929 0.04767,0.01295 0.180942,0.138641 0.715619,0.674922 0.361375,0.362458 0.664887,0.674522 0.674471,0.693476 0.02504,0.04952 0.02147,0.141593 -0.0079,0.203507 -0.04415,0.09303 -0.178349,0.148566 -0.281789,0.116602 z m 16.114463,0.0011 c -0.06834,-0.02072 -0.12086,-0.06296 -0.147161,-0.118392 -0.0291,-0.06131 -0.03255,-0.153494 -0.0076,-0.202832 0.0096,-0.01896 0.3131,-0.331018 0.674473,-0.693476 0.534674,-0.53628 0.667952,-0.661978 0.715617,-0.674922 0.191406,-0.05198 0.365213,0.156845 0.273777,0.328928 -0.01246,0.02343 -0.31599,0.335461 -0.67453,0.693397 -0.707863,0.706672 -0.70698,0.705964 -0.834578,0.667297 z M 19.729435,8.663424 c -0.02815,-0.013875 -0.06542,-0.048276 -0.08283,-0.076444 -0.03077,-0.049791 -0.03165,-0.077712 -0.03159,-1.0038698 0,-0.9170284 0.0012,-0.9545432 0.03086,-1.0031642 0.03994,-0.065503 0.10738,-0.099373 0.197852,-0.099373 0.09048,0 0.157913,0.033871 0.197853,0.099373 0.02965,0.048621 0.0308,0.086136 0.03086,1.0031642 0,0.927655 -7.66e-4,0.954005 -0.03174,1.0041128 -0.05853,0.094708 -0.202308,0.1299076 -0.311251,0.076202 z"
       id="path179"
       inkscape:export-filename="unplugged.png"
       inkscape:export-xdpi="96"
       inkscape:export-ydpi="96" /><path
       style="fill:#808080;stroke:none;stroke-width:0.264583px;stroke-linecap:butt;stroke-linejoin:miter;stroke-opacity:1;fill-opacity:1"
       d="m 22.855644,16.211181 1.746824,4.685407 3.558951,-1.893753 -1.19176,-3.575276 z"
       id="path932" /><path
       style="fill:#808080;stroke:none;stroke-width:0.264583px;stroke-linecap:butt;stroke-linejoin:miter;stroke-opacity:1;fill-opacity:1"
       d="m 28.317047,16.276819 c 0,0 0.334772,1.142841 0.415578,1.119753 0.08081,-0.02309 4.455925,-1.558419 4.455925,-1.558419 0,0 0.715719,-0.623367 0.784981,-1.085121 0.06926,-0.461754 -0.0231,-1.212104 -0.0231,-1.212104 0,0 -0.03463,-0.404034 0.03463,-0.646455 0.06926,-0.242421 0.865788,-0.577192 0.865788,-0.577192 l 3.047574,-1.05049 -0.392491,-1.131297 -3.878731,1.362174 c 0,0 -0.577191,0.404034 -0.796525,1.027402 -0.219332,0.623368 0.03463,1.396805 0.03463,1.396805 0,0 -0.06926,0.346315 -0.1847,0.554104 -0.115441,0.20779 -0.26551,0.404035 -0.26551,0.404035 z"
       id="path1210" /><path
       style="fill:#808080;fill-opacity:1;stroke:none;stroke-width:0.264583px;stroke-linecap:butt;stroke-linejoin:miter;stroke-opacity:1"
       d="m 16.848452,23.599207 -1.746824,-4.685407 -3.558951,1.893753 1.19176,3.575276 z"
       id="path1212" /><path
       style="fill:#808080;fill-opacity:1;stroke:none;stroke-width:0.264583px;stroke-linecap:butt;stroke-linejoin:miter;stroke-opacity:1"
       d="m 11.365209,23.425562 c 0,0 -0.334772,-1.142841 -0.415578,-1.119753 -0.08081,0.02309 -4.4559239,1.558419 -4.4559239,1.558419 0,0 -0.715719,0.623367 -0.784981,1.085121 -0.06926,0.461754 0.0231,1.212104 0.0231,1.212104 0,0 0.03463,0.404034 -0.03463,0.646455 -0.06926,0.242421 -0.865788,0.577192 -0.865788,0.577192 l -3.0475741,1.05049 0.392491,1.131297 3.8787311,-1.362174 c 0,0 0.577191,-0.404034 0.796525,-1.027402 0.219332,-0.623368 -0.03463,-1.396805 -0.03463,-1.396805 0,0 0.06926,-0.346315 0.1847,-0.554104 0.115441,-0.20779 0.26551,-0.404035 0.26551,-0.404035 z"
       id="path1214" /><path
       style="fill:#808080;stroke:none;stroke-width:0.264583px;stroke-linecap:butt;stroke-linejoin:miter;stroke-opacity:1;fill-opacity:1"
       d="m 16.651969,19.288531 2.505958,-0.840762 0.35916,0.195906 -0.04898,0.424462 -2.563097,0.857087 z"
       id="path1225" /><path
       style="fill:#808080;fill-opacity:1;stroke:none;stroke-width:0.264583px;stroke-linecap:butt;stroke-linejoin:miter;stroke-opacity:1"
       d="m 17.476405,21.533282 2.505958,-0.840762 0.35916,0.195906 -0.04898,0.424462 -2.563097,0.857087 z"
       id="path1227" /></g></svg>
